<svg aria-hidden="true" style="position: absolute; width: 0; height: 0; overflow: hidden;" version="1.1" xmlns="http://www.w3.org/2000/svg" xmlns:xlink="http://www.w3.org/1999/xlink">
<defs>
<symbol id="icon-Vector" viewBox="0 0 32 32">
<path d="M31.065 9.199c-0.019-1.308-0.261-2.605-0.725-3.829-0.812-2.089-2.464-3.741-4.557-4.549-1.21-0.454-2.489-0.698-3.783-0.726-1.665-0.074-2.193-0.095-6.419-0.095s-4.768 0-6.421 0.095c-1.293 0.028-2.572 0.271-3.781 0.726-2.092 0.809-3.747 2.46-4.557 4.549-0.455 1.208-0.701 2.484-0.725 3.775-0.074 1.664-0.097 2.191-0.097 6.41s0 4.758 0.097 6.41c0.026 1.292 0.27 2.567 0.725 3.779 0.812 2.087 2.464 3.739 4.559 4.547 1.205 0.47 2.483 0.736 3.781 0.778 1.667 0.074 2.194 0.097 6.421 0.097s4.768 0 6.421-0.097c1.293-0.026 2.572-0.27 3.783-0.724 2.092-0.81 3.745-2.462 4.557-4.549 0.455-1.209 0.699-2.484 0.725-3.779 0.074-1.662 0.097-2.189 0.097-6.41-0.003-4.219-0.003-4.755-0.1-6.408zM15.57 23.534c-4.42 0-8.001-3.575-8.001-7.987s3.581-7.987 8.001-7.987c4.417 0 8.001 3.575 8.001 7.987s-3.584 7.987-8.001 7.987zM23.89 9.126c-1.033 0-1.866-0.833-1.866-1.863s0.832-1.862 1.866-1.862c1.030 0 1.864 0.833 1.864 1.862s-0.834 1.863-1.864 1.863z"></path>
</symbol>
<symbol id="icon-facebook" viewBox="0 0 32 32">
<path d="M19.52 4.64c0.24 0 0.48 0 0.96 0v3.6c-0.24 0-0.72 0-1.2 0s-0.96 0-1.2 0.24c-0.24 0.24-0.24 0.48-0.24 1.040 0 0.48 0 0.8 0 1.28h2.64v3.040h-2.64v13.2h-4.080v-13.28h-2.16v-3.040h2.16v-1.040c0-1.76 0.24-3.040 0.72-3.6 0.72-1.040 2.16-1.52 4.32-1.52 0.24 0.080 0.48 0.080 0.72 0.080z"></path>
</symbol>
<symbol id="icon-Frame-60" viewBox="0 0 32 32">
<path d="M24.24 6c-1.36-0.080-4.16-0.16-8.4-0.16h-0.56c-4.080 0-6.8 0.080-8.16 0.24-1.84 0.16-3.12 0.64-3.84 1.28-0.64 0.56-1.12 1.6-1.28 2.96-0.080 0.88-0.16 2.72-0.16 5.52v0.4c0 2.64 0.080 4.48 0.24 5.36 0.24 1.28 0.64 2.24 1.44 2.8 0.8 0.64 2.16 1.040 4.080 1.2 1.36 0.080 4.16 0.16 8.4 0.16h0.56c4.080 0 6.8-0.080 8.16-0.24 1.84-0.16 3.12-0.64 3.84-1.28 0.64-0.56 1.12-1.6 1.28-2.96 0.080-0.88 0.16-2.72 0.16-5.52v-0.4c0-2.64-0.080-4.48-0.24-5.36-0.24-1.28-0.64-2.24-1.44-2.8-0.8-0.64-2.16-1.040-4.080-1.2zM21.12 15.84l-8.8 5.28v-10.56l8.8 5.28z"></path>
</symbol>
</defs>
</svg>
